#!OML:ASF H:\charlestonDancing\Project 1\Capture day 1\Session 1\femaleDancer.ASF
:FULLY-SPECIFIED
:DEGREES
188
root -0.320621 17.2431 4.47201 388.858 -84.0402 -375.749
lowerback 17.6893 -6.05347 4.22932
upperback 4.64567 -7.44967 -1.01966
thorax -5.51105 -3.76711 -1.77498
lowerneck 7.10447 14.8637 15.1005
upperneck -0.421153 20.9633 -17.0247
head 2.15772 10.7535 -6.93077
rclavicle 9.22361e-014 -1.27222e-014
rhumerus -52.6422 -16.3976 -54.2576
rradius 100.097
rwrist -50.8148
rhand -19.6513 -34.3505
rfingers 7.12502
rthumb 6.6764 -64.2252
lclavicle 9.22361e-014 -1.27222e-014
lhumerus -39.0667 10.7597 76.5419
lradius 31.5217
lwrist -9.52363
lhand -24.305 14.1088
lfingers 7.12502
lthumb 2.18279 44.0774
rfemur -41.3366 1.98784 26.7018
rtibia 52.0666
rfoot -16.5111 1.47287
rtoes -16.7515
lfemur -23.192 9.18924 -23.24
ltibia 67.0338
lfoot -0.270523 5.04525
ltoes -26.6308
189
root -0.434972 17.1525 4.46506 389.596 -84.1517 -377.362
lowerback 17.8909 -5.7312 4.51758
upperback 4.7039 -6.97442 -0.997658
thorax -5.55067 -3.54101 -2.00989
lowerneck 7.23015 14.8123 15.0673
upperneck -0.939994 20.87 -17.0271
head 1.96723 10.7201 -6.96957
rclavicle 1.98785e-014 -1.27222e-014
rhumerus -54.5591 -16.252 -52.7729
rradius 100.782
rwrist -51.2708
rhand -19.2954 -34.286
rfingers 7.12502
rthumb 7.02 -64.1496
lclavicle 1.98785e-014 -1.27222e-014
lhumerus -44.928 13.2907 73.5824
lradius 30.2884
lwrist -8.72027
lhand -23.915 14.2759
lfingers 7.12502
lthumb 2.55948 44.2403
rfemur -39.5188 0.893678 27.2707
rtibia 51.4513
rfoot -19.1036 1.60251
rtoes -16.3195
lfemur -25.4855 8.77746 -22.6632
ltibia 73.216
lfoot 0.0868297 4.42136
ltoes -24.1998
190
root -0.518452 17.0525 4.46067 393.993 -84.2682 -383.161
lowerback 18.8864 -5.36459 5.01236
upperback 4.81448 -6.36014 -0.844121
thorax -5.94135 -3.25489 -2.19415
lowerneck 7.66246 14.7234 15.0502
upperneck -1.57247 20.7508 -17.1577
head 1.70717 10.6894 -7.08301
rclavicle -5.725e-014 1.74931e-014
rhumerus -56.4894 -16.0867 -51.1285
rradius 101.478
rwrist -51.6256
rhand -18.6026 -34.0608
rfingers 7.12502
rthumb 7.6887 -63.9011
lclavicle -5.725e-014 1.74931e-014
lhumerus -51.1348 15.0081 70.3391
lradius 29.503
lwrist -8.31394
lhand -23.956 13.9362
lfingers 7.12502
lthumb 2.5199 43.9011
rfemur -37.5419 0.17727 28.1766
rtibia 51.1396
rfoot -20.4569 1.73351
rtoes -15.0425
lfemur -27.5232 8.29163 -21.6057
ltibia 79.4344
lfoot 0.0438699 3.20382
ltoes -25.3761
191
root -0.580271 16.9633 4.46262 405.458 -84.1377 -396.575
lowerback 20.259 -4.93709 6.13592
upperback 5.32587 -5.53595 -0.556557
thorax -6.10141 -2.87791 -2.6508
lowerneck 8.00744 14.6791 15.0102
upperneck -2.33034 20.6714 -17.3488
head 1.4357 10.6784 -7.20493
rclavicle 3.1408e-014 -2.46493e-014
rhumerus -58.0498 -16.5383 -49.6464
rradius 102.113
rwrist -51.7975
rhand -17.6321 -33.7536
rfingers 7.12502
rthumb 8.62537 -63.5574
lclavicle 3.1408e-014 -2.46493e-014
lhumerus -56.8855 16.3181 66.6537
lradius 28.6578
lwrist -8.84919
lhand -23.7388 13.6355
lfingers 7.12502
lthumb 2.72965 43.5978
rfemur -35.1395 0.0614331 29.6949
rtibia 50.9296
rfoot -21.0881 1.89759
rtoes -13.5109
lfemur -29.2181 8.04269 -19.6247
ltibia 85.5348
lfoot -1.98992 0.437467
ltoes -29.5397
192
root -0.628325 16.8917 4.47346 422.323 -83.1921 -415.937
lowerback 22.3726 -4.61347 7.98783
upperback 5.97282 -4.61709 -0.0588169
thorax -6.4696 -2.47663 -3.30323
lowerneck 8.29023 14.7713 14.9631
upperneck -2.86917 20.7842 -17.3517
head 1.24693 10.7535 -7.23871
rclavicle 4.65156e-014 -8.74653e-015
rhumerus -59.1901 -17.1256 -48.4402
rradius 102.641
rwrist -52.0582
rhand -17.1065 -33.7517
rfingers 7.12502
rthumb 9.13254 -63.534
lclavicle 4.65156e-014 -8.74653e-015
lhumerus -62.5547 17.7677 61.9186
lradius 27.2463
lwrist -10.5892
lhand -23.5463 13.3421
lfingers 7.12502
lthumb 2.91557 43.3019
rfemur -32.0942 0.429563 32.0774
rtibia 50.7519
rfoot -21.4987 2.00594
rtoes -11.9199
lfemur -30.2926 8.27595 -16.4329
ltibia 91.1843
lfoot -4.45221 -2.02677
ltoes -31.1419
193
root -0.669717 16.8507 4.50973 437.581 -81.2136 -431.685
lowerback 22.7201 -4.39032 10.6168
upperback 6.04113 -3.69734 0.54668
thorax -6.53533 -2.07443 -4.37743
lowerneck 9.04443 14.948 15.2174
upperneck -3.34575 21.0975 -17.3916
head 1.06965 10.9443 -7.34347
rclavicle -1.78906e-014 -1.35174e-014
rhumerus -59.9471 -17.627 -47.714
rradius 103.006
rwrist -52.4067
rhand -17.1344 -33.9264
rfingers 7.12502
rthumb 9.10564 -63.7098
lclavicle -1.78906e-014 -1.35174e-014
lhumerus -68.198 19.1717 55.881
lradius 25.0155
lwrist -12.9052
lhand -24.4027 13.2447
lfingers 7.12502
lthumb 2.08844 43.2142
rfemur -31.1038 1.16072 34.9905
rtibia 50.3218
rfoot -21.4883 2.34176
rtoes -10.1539
lfemur -33.7714 8.98098 -12.9048
ltibia 96.3386
lfoot -7.15929 -3.46946
ltoes -31.1399
194
root -0.716902 16.8831 4.53 443.151 -82.6053 -437.684
lowerback 23.0469 -3.80375 9.1592
upperback 6.20756 -3.27978 0.211804
thorax -6.41722 -1.85589 -4.04065
lowerneck 9.78667 15.1872 15.6651
upperneck -3.69282 21.5302 -17.6082
head 0.994663 11.1954 -7.50425
rclavicle -1.19271e-015 -1.66979e-014
rhumerus -60.0664 -18.2912 -47.5672
rradius 102.974
rwrist -52.5059
rhand -17.1605 -33.8619
rfingers 7.12502
rthumb 9.0805 -63.6465
lclavicle -1.19271e-015 -1.66979e-014
lhumerus -73.7584 20.5856 48.303
lradius 22.1907
lwrist -16.2223
lhand -25.0325 13.6408
lfingers 7.12502
lthumb 1.48017 43.6155
rfemur -30.224 1.81476 33.7015
rtibia 49.8624
rfoot -21.3531 2.52784
rtoes -8.85476
lfemur -36.8426 8.83187 -14.1077
ltibia 99.8652
lfoot -9.34812 -2.87151
ltoes -29.3646
